<svg width="20" height="20" viewBox="0 0 20 20" fill="none" xmlns="http://www.w3.org/2000/svg">
<path d="M19.1308 7.41927C19.0731 7.24946 18.967 7.10025 18.8255 6.99006C18.684 6.87987 18.5133 6.81353 18.3346 6.79922L13.1054 6.38371L10.8426 1.3747C10.7706 1.21337 10.6533 1.07634 10.5051 0.980156C10.3569 0.883971 10.184 0.832739 10.0073 0.832642C9.83063 0.832545 9.65768 0.883587 9.50935 0.979609C9.36103 1.07563 9.24366 1.21253 9.17142 1.37378L6.9086 6.38371L1.67945 6.79922C1.50376 6.81314 1.3358 6.87738 1.19566 6.98425C1.05552 7.09113 0.949144 7.23612 0.889249 7.40187C0.829354 7.56762 0.818479 7.74712 0.857927 7.91889C0.897375 8.09066 0.985474 8.24743 1.11168 8.37044L4.97599 12.1375L3.60931 18.0555C3.56782 18.2347 3.58112 18.4221 3.64749 18.5936C3.71386 18.7651 3.83024 18.9127 3.98153 19.0172C4.13282 19.1217 4.31202 19.1783 4.4959 19.1797C4.67977 19.1811 4.85982 19.1272 5.01268 19.025L10.007 15.6955L15.0014 19.025C15.1576 19.1288 15.3419 19.1822 15.5294 19.1781C15.7168 19.1739 15.8986 19.1125 16.0501 19.002C16.2017 18.8916 16.3157 18.7373 16.377 18.5601C16.4383 18.3828 16.4438 18.1911 16.3928 18.0106L14.7152 12.1403L18.8758 8.39612C19.1482 8.15031 19.2482 7.7669 19.1308 7.41927Z" fill="#F3CD03"/>
</svg>
